<?xml version="1.0" standalone="no"?>
<!DOCTYPE svg PUBLIC "-//W3C//DTD SVG 20010904//EN"
 "http://www.w3.org/TR/2001/REC-SVG-20010904/DTD/svg10.dtd">
<svg version="1.0" xmlns="http://www.w3.org/2000/svg"
 width="16.000000pt" height="16.000000pt" viewBox="0 0 16.000000 16.000000"
 preserveAspectRatio="xMidYMid meet">
<metadata>
Created by potrace 1.11, written by Peter Selinger 2001-2013
</metadata>
<g transform="translate(0.000000,16.000000) scale(0.001667,-0.001667)"
fill="#000000" stroke="none">
<path d="M685 6078 c-2 -7 -85 -470 -183 -1028 l-178 -1015 1608 -3 1608 -2
-5 -23 c-11 -51 -85 -483 -85 -499 0 -17 121 -18 2738 -18 l2738 0 180 1023
c100 562 179 1025 177 1030 -2 4 -765 7 -1694 7 l-1689 0 5 23 c12 54 85 478
85 497 l0 20 -2650 0 c-2112 0 -2652 -3 -2655 -12z m1370 -195 c-3 -21 -48
-274 -99 -563 l-92 -525 -132 -3 c-73 -1 -132 1 -132 5 0 15 179 1026 182
1028 6 4 263 94 271 94 5 1 6 -16 2 -36z m-415 -75 c-1 -7 -11 -67 -23 -133
l-22 -120 -127 -3 -127 -3 -5 -27 c-3 -15 -33 -184 -67 -377 -34 -192 -62
-351 -63 -352 -1 -1 -66 -24 -144 -51 l-143 -50 5 27 c8 35 146 820 146 826 0
3 -55 5 -121 5 l-122 0 7 48 c3 26 13 86 22 135 l16 87 384 0 c301 0 384 -3
384 -12z m930 -105 c7 -65 17 -122 21 -127 6 -6 9 -6 9 1 0 7 18 64 41 127
l41 116 204 0 c112 0 204 -1 204 -2 0 -12 -180 -1021 -182 -1023 -4 -4 -288
-104 -288 -102 0 1 22 126 49 277 27 151 48 276 46 278 -1 1 -22 -41 -45 -95
-24 -54 -55 -126 -71 -160 l-28 -63 -89 0 c-106 0 -94 -19 -113 183 -7 75 -16
134 -19 130 -4 -5 -24 -108 -45 -230 l-39 -223 -139 0 -139 0 6 28 c7 29 176
991 176 998 0 2 87 4 194 4 l194 0 12 -117z m1298 95 c-8 -13 -45 -74 -83
-135 l-68 -113 -127 0 c-143 0 -135 4 -146 -80 l-7 -50 127 0 c111 0 126 -2
126 -17 0 -15 -24 -157 -36 -210 -4 -22 -8 -23 -133 -23 l-129 0 -6 -30 c-3
-16 -9 -43 -12 -60 l-6 -30 144 0 144 0 23 -126 c12 -70 20 -128 18 -130 -2
-3 -150 -3 -329 -2 l-324 3 90 513 90 512 329 0 329 0 -14 -22z m1807 -10 c-3
-18 -46 -259 -94 -536 -49 -276 -91 -505 -94 -508 -3 -3 -279 -88 -612 -189
-334 -101 -609 -185 -610 -187 -3 -4 -45 -241 -45 -256 0 -9 90 -12 378 -12
l377 0 210 64 c115 36 211 63 212 62 2 -1 -15 -103 -37 -227 -22 -123 -40
-227 -40 -231 0 -5 -351 -8 -780 -8 l-780 0 5 23 c3 12 37 204 75 427 39 223
73 412 76 421 3 11 174 67 601 195 328 98 602 184 609 189 7 6 29 105 49 220
20 116 39 220 42 233 l5 22 -380 0 -380 0 -6 -27 c-3 -16 -15 -84 -27 -153
-12 -69 -24 -128 -28 -132 -8 -9 -403 -129 -408 -124 -2 1 27 175 64 384 l67
382 778 0 779 0 -6 -32z m3334 -575 c-11 -60 -21 -118 -24 -130 l-5 -23 -1576
0 -1577 0 7 43 c4 23 14 81 22 130 l16 87 1578 0 1577 0 -18 -107z m-2579
-418 c0 -3 -28 -60 -62 -125 l-63 -120 -152 0 c-84 0 -153 -2 -153 -5 0 -3
-20 -119 -45 -258 -25 -140 -45 -257 -45 -260 0 -4 67 -7 148 -7 l149 0 17
-102 c10 -57 20 -115 23 -130 l6 -28 -327 0 c-236 0 -326 3 -326 11 0 12 153
889 171 977 l10 52 325 0 c178 0 324 -2 324 -5z m796 -12 c-2 -10 -44 -244
-92 -520 l-88 -503 -331 0 -331 0 92 518 c51 284 93 518 93 520 1 1 150 2 332
2 310 0 330 -1 325 -17z m904 10 c0 -5 -56 -148 -124 -320 l-123 -311 42 -251
c23 -138 38 -251 34 -251 -6 0 -269 90 -276 95 -1 0 -14 75 -29 165 -15 91
-28 166 -29 167 -3 4 -129 -39 -138 -47 -4 -3 -17 -60 -28 -126 -11 -65 -22
-127 -25 -136 -5 -16 -20 -18 -136 -18 -100 0 -129 3 -126 13 3 6 45 240 94
520 l89 507 387 0 c214 0 388 -3 388 -7z m800 3 c0 -2 -31 -57 -68 -123 l-68
-118 -149 -5 -150 -5 -11 -50 c-22 -92 -33 -85 131 -85 113 0 145 -3 145 -13
0 -7 -9 -62 -20 -122 -11 -60 -20 -110 -20 -112 0 -2 -67 -3 -149 -3 l-149 0
-7 -47 c-3 -27 -9 -58 -12 -70 l-5 -23 149 0 149 0 22 -107 c12 -60 25 -118
28 -130 l6 -23 -331 0 c-182 0 -331 4 -331 9 0 9 166 957 176 1004 l6 27 329
0 c181 0 329 -2 329 -4z m-8046 -311 c-3 -25 -4 -45 -1 -45 2 0 64 20 136 45
l131 45 721 0 720 0 -7 -45 c-3 -25 -4 -45 0 -45 3 0 65 20 137 45 l131 45
383 0 382 0 -18 -107 c-11 -60 -21 -118 -24 -130 l-5 -23 -1486 0 -1486 0 6
33 c4 17 14 76 23 130 l16 97 124 0 124 0 -7 -45z"/>
<path d="M6779 4548 c0 -2 -22 -121 -48 -265 l-47 -263 76 0 75 0 45 258 c24
141 45 259 45 262 0 5 -144 13 -146 8z"/>
<path d="M7566 4523 c-21 -106 -38 -215 -34 -219 3 -2 45 10 95 28 l90 32 32
85 c17 47 31 89 31 94 0 4 -47 7 -104 7 l-104 0 -6 -27z"/>
</g>
</svg>
